<svg xmlns="http://www.w3.org/2000/svg" width="256" height="256"><path fill-opacity=".016" d="M0 128.004v128.004l128.25-.254 128.25-.254.254-127.75L257.008 0H0v128.004m.485.496c0 70.4.119 99.053.265 63.672.146-35.38.146-92.98 0-128C.604 29.153.485 58.1.485 128.5" fill="#1976D2" fill-rule="evenodd"/><path fill-opacity=".067" d="M54 39.353v9.353l15.25 4.093c8.388 2.25 25.036 6.667 36.997 9.814l21.746 5.722 34.754-9.241c19.114-5.082 35.54-9.463 36.503-9.735 1.509-.426 1.75-1.802 1.75-10.01 0-5.233-.367-9.366-.815-9.182-.448.183-16.904 8.414-36.569 18.292l-35.755 17.959-36.434-18.209C71.388 38.194 54.769 30 54.496 30c-.273 0-.496 4.209-.496 9.353m-24 88.58c0 81.855-.616 74.282 6.137 75.441 1.45.249 5.05 1.141 8 1.983A649.09 649.09 0 0055 208.334c12.957 3.406 18.771 4.986 23 6.25 2.475.741 5.625 1.555 7 1.81 1.375.256 4.638 1.127 7.25 1.938 2.613.81 4.75 1.302 4.75 1.095 0-.208 1.218.086 2.706.651C102.471 221.13 120.314 226 121.4 226c.33 0 .6-33.283.6-73.961V78.077l-4.25-1.041c-2.338-.572-6.5-1.693-9.25-2.491s-6.125-1.666-7.5-1.927c-1.375-.262-4.638-1.139-7.25-1.95-2.612-.81-4.75-1.302-4.75-1.095 0 .208-1.218-.086-2.706-.651-1.489-.566-7.001-2.16-12.25-3.542A7364.939 7364.939 0 0138.5 55.933c-3.85-1.037-7.337-1.897-7.75-1.909-.413-.013-.75 33.246-.75 73.909m149-61.445L133.5 78.67l-.259 72.415c-.142 39.828-.068 72.913.164 73.521.338.888 63.307-15.123 88.845-22.59l3.75-1.096v-72.901c0-40.096-.338-73.084-.75-73.307-.412-.223-21.225 5.076-46.25 11.776" fill="#1976D2" fill-rule="evenodd"/><path fill-opacity=".274" d="M55 39.78v8.78l36.369 9.694 36.37 9.694 36.625-9.724 36.625-9.724.006-8.75c.003-5.202-.403-8.75-1-8.75-.553 0-17.091 8.045-36.751 17.878L127.5 66.755 92 48.932c-19.525-9.803-35.837-17.848-36.25-17.878-.413-.03-.75 3.897-.75 8.726M30 128.5c0 69.331.099 73.5 1.75 73.507.962.003 6.7 1.395 12.75 3.091 6.05 1.697 11.9 3.264 13 3.482 1.1.218 4.475 1.098 7.5 1.956a988.778 988.778 0 0022 5.994c13.251 3.446 17.631 4.62 23 6.163 3.025.87 6.963 1.781 8.75 2.026l3.25.444V78.091l-3.75-.623c-2.062-.343-5.775-1.233-8.25-1.979-2.475-.746-7.425-2.111-11-3.033-13.518-3.486-17.644-4.595-22.5-6.046-2.75-.822-5.989-1.67-7.198-1.885-1.21-.215-4.585-1.07-7.5-1.902A760.87 760.87 0 0050.5 59.522c-3.3-.875-8.29-2.25-11.088-3.056S33.351 55 32.162 55H30v73.5m152-62.458c-22.275 5.978-42.187 11.357-44.25 11.954L134 79.08v72.96c0 40.128.158 72.96.35 72.96.193 0 18.981-4.968 41.75-11.04l45.15-12.038 3.75-.999v-72.962c0-57.748-.261-72.943-1.25-72.875-.687.048-19.475 4.978-41.75 10.956" fill="#1976D2" fill-rule="evenodd"/><path fill-opacity=".276" d="M55 39.424v8.421l3.25 1.025c1.788.565 9.325 2.62 16.75 4.567 7.425 1.948 15.975 4.226 19 5.062 14.659 4.052 31.448 8.387 31.66 8.174.131-.13-15.714-8.209-35.211-17.953L55 31.004v8.42m109 9.672c-19.525 9.893-34.6 17.81-33.5 17.594 1.966-.387 54.983-14.497 65.25-17.365l5.25-1.467v-8.429c0-4.636-.338-8.405-.75-8.375-.412.03-16.725 8.149-36.25 18.042M30.5 128.014c0 64.029.185 73.066 1.5 73.465.825.251 3.975 1.103 7 1.895 3.025.791 10 2.65 15.5 4.132 5.5 1.481 10.853 2.86 11.896 3.064 1.044.204 3.34.848 5.104 1.43 1.764.582 4.06 1.229 5.104 1.437 1.043.208 5.271 1.28 9.396 2.384 4.125 1.103 12.9 3.42 19.5 5.149s12.79 3.374 13.757 3.656c1.665.486 1.743-3.273 1.5-72.696l-.257-73.209-4.5-1.358c-2.475-.747-5.4-1.545-6.5-1.773-1.747-.362-9.84-2.498-30.5-8.05-3.025-.813-8.2-2.246-11.5-3.184-3.3-.937-6.308-1.636-6.685-1.552-.377.084-2.591-.519-4.921-1.341-2.329-.822-5.515-1.72-7.079-1.996-1.564-.275-4.75-1.121-7.08-1.88-2.329-.759-5.81-1.65-7.735-1.982l-3.5-.602v73.011M217 57.212c-9.543 2.619-62.7 16.802-74.25 19.811l-8.75 2.28v72.817c0 57.815.258 72.729 1.25 72.39 1.246-.426 31.049-8.416 69.499-18.631l20.249-5.379.001-72.75c.001-40.013-.112-72.715-.249-72.673-.137.043-3.625 1.004-7.75 2.135" fill="#1976D2" fill-rule="evenodd"/></svg>